Coordinates
version=1
nRows=17
nColumns=24
inDegrees=yes

Units are S.I. units (second, meters, Newtons, ...)
Angles are in degrees.

endheader
time	pelvis_tilt	pelvis_list	pelvis_rotation	pelvis_tx	pelvis_ty	pelvis_tz	hip_flexion_r	hip_adduction_r	hip_rotation_r	knee_angle_r	ankle_angle_r	subtalar_angle_r	mtp_angle_r	hip_flexion_l	hip_adduction_l	hip_rotation_l	knee_angle_l	ankle_angle_l	subtalar_angle_l	mtp_angle_l	lumbar_extension	lumbar_bending	lumbar_rotation
      0.56300000	     -3.37189784	      1.45727662	      8.28760472	     -0.80411975	      0.88802931	      0.34538306	     29.37840481	     -1.84730902	    -11.69880733	     -7.44846030	      6.74113591	      5.70497454	      6.99788848	    -14.42919725	      3.05440590	      6.54413519	     -7.61258319	     15.85127223	     -0.85504224	      5.33378054	     -5.18973238	     -2.36159316	    -11.60798684
      0.56716667	     -3.42137947	      1.45049915	      8.30030455	     -0.79838403	      0.88697140	      0.34567538	     29.49045713	     -1.74069932	    -11.51313351	     -7.79566298	      6.66671652	      5.79652309	      7.02239400	    -14.39048894	      2.96193162	      6.22570892	     -8.39898684	     16.10383799	     -0.15458278	      5.48778188	     -5.11218336	     -2.30434055	    -11.53192091
      0.57133333	     -3.46553030	      1.42710936	      8.31361376	     -0.79259360	      0.88596668	      0.34597233	     29.58923408	     -1.61505269	    -11.30585242	     -8.20420445	      6.52453682	      5.77721476	      7.07152259	    -14.38183737	      2.85542969	      6.06178792	     -9.13902337	     16.24172949	      0.27252666	      5.66546765	     -5.03879569	     -2.22945363	    -11.54389503
      0.57550000	     -3.50647287	      1.40820831	      8.30964722	     -0.78677027	      0.88500735	      0.34629995	     29.68829779	     -1.48586580	    -11.06578296	     -8.68673340	      6.32986621	      5.71150085	      7.12920344	    -14.36435706	      2.75904760	      5.91438768	     -9.90223121	     16.37020086	      0.62944871	      5.83919682	     -4.97311866	     -2.15906537	    -11.51875515
      0.57966667	     -3.54402161	      1.37629374	      8.29334656	     -0.78087497	      0.88408016	      0.34663878	     29.78823632	     -1.33906168	    -10.82228324	     -9.23942924	      6.08026114	      5.56008556	      7.20781899	    -14.33172580	      2.64408633	      5.68376229	    -10.70499761	     16.41296411	      1.08724568	      6.05481615	     -4.88460509	     -2.07086600	    -11.47185233
      0.58383333	     -3.50468463	      1.29666451	      8.27680866	     -0.77488609	      0.88331639	      0.34701336	     29.77739217	     -1.12831065	    -10.60316545	     -9.78447940	      5.76950170	      5.33033962	      7.43507531	    -14.33996257	      2.44954344	      5.33527007	    -11.58248881	     16.46565782	      1.73196795	      6.65017473	     -4.88367164	     -1.90394585	    -11.40803776
      0.58800000	     -3.53089439	      1.23594218	      8.24428238	     -0.76888913	      0.88248072	      0.34740743	     29.86485151	     -0.94038505	    -10.32890841	    -10.43053485	      5.40229342	      4.98760492	      7.73376285	    -14.26627302	      2.29414829	      5.04475811	    -12.49267917	     16.46836871	      2.25941774	      7.46303298	     -4.79324296	     -1.77769180	    -11.29874954
      0.59216667	     -3.61029298	      1.22238410	      8.20600052	     -0.76290047	      0.88162217	      0.34776376	     30.04612799	     -0.81857594	    -10.06107567	    -11.20115928	      5.04870632	      4.67263348	      7.80766404	    -14.16986092	      2.22404136	      4.98778377	    -13.33768979	     16.29964849	      2.39840021	      7.68586564	     -4.63763550	     -1.71014533	    -11.23972064
      0.59633333	     -3.56734979	      1.11167959	      8.15720382	     -0.75676686	      0.88097937	      0.34821208	     30.03087602	     -0.55706979	     -9.77333326	    -11.85001953	      4.56055595	      4.19076273	      8.09902153	    -14.10513829	      1.98678250	      4.53848189	    -14.36819886	     16.25558087	      3.12497985	      8.57728462	     -4.61862048	     -1.51606638	    -11.07635409
      0.60050000	     -3.66683326	      1.09968639	      8.09171882	     -0.75070409	      0.88016699	      0.34861505	     30.25728909	     -0.42910639	     -9.46518409	    -12.72852240	      4.17648842	      3.75384176	      8.16973454	    -13.93776976	      1.92525148	      4.44395478	    -15.31111997	     15.97774368	      3.26320177	      8.82809442	     -4.42295269	     -1.45660657	    -10.98365985
      0.60466667	     -3.63764922	      1.00900531	      8.01899476	     -0.74453173	      0.87957496	      0.34909047	     30.30152729	     -0.18995471	     -9.16855218	    -13.52129175	      3.67919965	      3.18339340	      9.68608601	    -13.82571626	      1.71603153	      4.02173471	    -16.39681317	     15.76123992	      3.80191361	     14.33649237	     -4.37839101	     -1.28155954	    -10.94740081
      0.60883333	     -3.70802035	      0.95244951	      7.94481110	     -0.73834901	      0.87891762	      0.34951811	     30.47223444	     -0.00651472	     -8.85755796	    -14.38419618	      3.23278350	      2.66363694	      9.67418173	    -13.63167257	      1.59262073	      3.85594713	    -17.44276170	     15.36596770	      4.02348319	     14.40414335	     -4.19415956	     -1.16126803	    -10.67142586
      0.61300000	     -3.70281507	      0.84572469	      7.86619906	     -0.73212338	      0.87839709	      0.35000846	     30.54471087	      0.24884626	     -8.53465315	    -15.21852233	      2.77199523	      2.00972547	      9.66736033	    -13.44093892	      1.37461352	      3.49474414	    -18.63352033	     15.13899110	      4.52112032	     14.63666205	     -4.09731277	     -0.97190438	    -10.41999139
      0.61716667	     -3.73471516	      0.78620974	      7.76471942	     -0.72590507	      0.87787073	      0.35050070	     30.69144702	      0.45242225	     -8.19120143	    -16.14649231	      2.38940823	      1.43878142	      9.66153362	    -13.21694160	      1.23271605	      3.23029523	    -19.81037434	     14.72575805	      4.84545580	     14.87167095	     -3.96675564	     -0.84586065	    -10.23372087
      0.62133333	     -3.74826275	      0.70860831	      7.66537033	     -0.71966106	      0.87742904	      0.35100594	     30.81098891	      0.67645307	     -7.85552433	    -17.07159515	      2.03428696	      0.85286438	      9.65203711	    -12.97358519	      1.06058516	      2.94533795	    -21.05136008	     14.27670885	      5.20073470	     15.17458891	     -3.84972361	     -0.69860877	    -10.01936700
      0.62550000	     -3.72149861	      0.59132246	      7.56805660	     -0.71335112	      0.87711976	      0.35153326	     30.86280447	      0.95002936	     -7.52436245	    -17.95799594	      1.72572594	      0.24787222	      9.50727482	    -12.73377390	      0.81963483	      2.58341263	    -22.33279399	     13.66047590	      5.56974605	     19.97544935	     -3.76666703	     -0.48380098	     -9.89305365
      0.62966667	     -3.73584251	      0.54169944	      7.45341019	     -0.70708765	      0.87678793	      0.35203170	     31.00545806	      1.14026671	     -7.20203740	    -18.97154151	      1.59404335	     -0.18434658	      9.49898849	    -12.45013580	      0.68881039	      2.36189790	    -23.62307721	     13.00400248	      5.79118523	     20.02096566	     -3.65250362	     -0.36156414	     -9.64914638
